<?xml version="1.0" standalone="no"?> <!DOCTYPE svg PUBLIC "-//W3C//DTD SVG 1.0//EN" "http://www.w3.org/TR/2001/REC-SVG-20010904/DTD/svg10.dtd" > <svg xmlns="http://www.w3.org/2000/svg" width="100%" height="100%">
<defs >
<font id="titlinggothicfbwide-light" horiz-adv-x="659" ><font-face
    font-family="TitlingGothicFB Wide Light"
    units-per-em="1000"
    panose-1="2 0 5 5 4 0 0 2 0 4"
    ascent="800"
    descent="-201"
    alphabetic="0" />
<missing-glyph horiz-adv-x="500" />
<glyph unicode=" " glyph-name="space" horiz-adv-x="354" />
<glyph unicode="!" glyph-name="exclam" horiz-adv-x="338" d="M220 785L208 205H130L119 785H220ZM219 0H120V134H219V0Z" />
<glyph unicode="&quot;" glyph-name="quotedbl" horiz-adv-x="488" d="M407 785L401 413H325L319 785H407ZM169 785L162 413H86L80 785H169Z" />
<glyph unicode="#" glyph-name="numbersign" horiz-adv-x="679" d="M647 525L638 456H496L465 305H620L611 236H455L405 -29H355L404 236H227L177 -29H127L176 236H30L39 305H187L217 456H58L66 525H229L275 774H326L279 525H458L503 774H554L507 525H647ZM445
456H268L238 305H415L445 456Z" />
<glyph unicode="$" glyph-name="dollar" horiz-adv-x="874" d="M404 3Q116 12 58 165Q50 189 46 227H126Q131 195 137 178Q161 122 228 98T404 71V375Q396 376 381 378T358 382Q203 407 131 450T59 581Q59 767 404 775V807H459V774Q601 770 672 730T772 615Q778
596 784 554H705Q701 587 696 599Q674 648 620 674T459 704V438Q463 437 482 435T510 430Q679 404 745 357T812 212Q812 155 783 114T701 49T589 15T459 2V-55H404V3ZM404 706Q262 704 200 673T137 581Q137 523 202 494T404 447V706ZM459 70Q591 72 660 107T730
207Q730 276 674 311T459 367V70Z" />
<glyph unicode="%" glyph-name="percent" horiz-adv-x="1311" d="M1243 183Q1243 103 1170 48T965 -8T761 48T687 183V220Q687 298 762 355T964 412Q1095 412 1169 354T1243 220V183ZM620 571Q620 494 545 438T343 381Q213 381 139 438T65 571V608Q65 689 139
744T341 800Q474 800 547 743T620 608V571ZM552 576V601Q552 656 497 696T341 736Q239 736 186 698T133 603V577Q133 521 188 482T342 443Q448 443 500 482T552 576ZM1174 189V213Q1174 267 1119 307T964 347Q861 347 809 308T756 215V189Q756 134 811 95T964 55Q1072
55 1123 94T1174 189ZM987 777L363 0H300L923 777H987Z" />
<glyph unicode="&amp;" glyph-name="ampersand" horiz-adv-x="1053" d="M421 364Q529 282 751 158Q868 238 886 363H969Q949 213 818 115L1041 0H887Q801 37 750 68Q603 -10 405 -10Q315 -10 252 -3T141 24T69 77T45 164Q45 237 98 283T293 383Q285 391 265 413T236
444T213 474T192 510T181 549T175 598Q175 695 243 745T431 796Q543 796 608 744T673 609Q673 562 655 525T598 458T521 409T421 364ZM367 415Q487 459 539 500T592 604Q592 660 548 690T428 721Q255 721 255 591Q255 512 367 415ZM345 328Q301 311 276 301T219
274T171 244T143 210T131 168Q131 127 166 103T259 69T404 60Q553 60 680 113Q421 268 345 328Z" />
<glyph unicode="&apos;" glyph-name="quotesingle" horiz-adv-x="399" d="M246 785L238 409H159L152 785H246Z" />
<glyph unicode="(" glyph-name="parenleft" horiz-adv-x="408" d="M391 -68H305Q268 -47 231 -15T151 69T83 196T56 357Q56 432 81 505T145 632T225 726T305 785H391Q295 728 220 608T145 358Q145 281 168 210T230 86T308 -4T391 -68Z" />
<glyph unicode=")" glyph-name="parenright" horiz-adv-x="408" d="M363 357Q363 273 337 198T269 71T190 -13T115 -68H29Q71 -42 111 -5T189 86T251 210T275 358Q275 488 200 608T29 785H115Q153 766 194 727T274 633T338 505T363 357Z" />
<glyph unicode="*" glyph-name="asterisk" horiz-adv-x="715" d="M377 600L546 686L568 618L392 544L527 401L478 356L352 508L231 358L182 403L310 544L129 618L150 686L325 600L320 799H381L377 600Z" />
<glyph unicode="+" glyph-name="plus" horiz-adv-x="742" d="M676 375H408V137H336V375H66V437H335V675H408V437H676V375Z" />
<glyph unicode="," glyph-name="comma" horiz-adv-x="382" d="M240 -5L188 -100L129 -97L174 3L160 0H134V147H240V-5Z" />
<glyph unicode="-" glyph-name="hyphen" horiz-adv-x="581" d="M563 328H19V414H563V328Z" />
<glyph unicode="." glyph-name="period" horiz-adv-x="382" d="M243 0H132V147H243V0Z" />
<glyph unicode="/" glyph-name="slash" horiz-adv-x="378" d="M413 795L14 -158H-38L361 795H413Z" />
<glyph unicode="0" glyph-name="zero" horiz-adv-x="879" d="M296 796T440 796T676 738T802 579Q825 511 825 393Q825 277 801 208Q728 -10 440 -10Q150 -10 78 210Q55 278 55 393Q55 507 76 575Q107 678 201 737ZM738 282T738 393T718 563Q693 637 622 678T439
720T257 679T159 560Q140 500 140 393Q140 289 161 226Q219 66 440 66T719 226Q738 282 738 393Z" />
<glyph unicode="1" glyph-name="one" horiz-adv-x="596" d="M424 0H341V686L72 634V708Q180 728 232 738T314 759T349 774T359 791H424V0Z" />
<glyph unicode="2" glyph-name="two" horiz-adv-x="824" d="M796 0H63V85Q172 134 245 169T391 244T510 317T591 387T643 463T659 545Q659 622 601 670T412 719Q168 719 157 543H71Q93 796 418 796Q494 796 552 783T646 747T706 693T739 627T748 553Q748 490 718
432T640 326T519 233T373 152T206 79H796V0Z" />
<glyph unicode="3" glyph-name="three" horiz-adv-x="860" d="M606 417Q810 399 810 233Q810 164 782 115T700 39T581 1T431 -11Q324 -11 249 8T133 64T76 143T58 241H143Q143 154 209 109T431 63Q723 63 723 229Q723 298 670 334T490 371H262V441H486Q589 441
634 475T679 576Q679 609 669 633T632 679T557 711T434 722Q289 722 233 677T177 550H95Q95 671 177 733T439 796Q764 796 764 599Q764 528 724 478T606 417Z" />
<glyph unicode="4" glyph-name="four" horiz-adv-x="823" d="M815 196H647V0H565V196H27V285L557 795H647V273H815V196ZM565 273V699L113 273H565Z" />
<glyph unicode="5" glyph-name="five" horiz-adv-x="867" d="M815 221Q806 114 710 52T456 -10Q133 -10 73 190Q67 211 63 247H147Q150 223 156 205Q206 65 447 65Q569 65 644 108T724 232Q729 273 724 306Q702 472 450 472Q253 472 186 361H96V784H761V705H173V427Q208
487 289 517T475 547Q633 547 718 486T815 313Q819 277 815 221Z" />
<glyph unicode="6" glyph-name="six" horiz-adv-x="851" d="M444 -11Q56 -11 56 394Q56 796 433 796Q525 796 593 778T697 730T751 668T771 600H691Q686 653 623 686T432 720Q126 720 140 410Q180 455 267 486T475 518Q640 518 723 453T806 264Q806 131 713 60T444
-11ZM721 261Q721 354 661 400T458 447Q329 447 247 408T142 334Q150 186 224 125T446 64Q721 64 721 261Z" />
<glyph unicode="7" glyph-name="seven" horiz-adv-x="709" d="M701 706L229 0H131L612 706H6V785H701V706Z" />
<glyph unicode="8" glyph-name="eight" horiz-adv-x="853" d="M426 -10Q46 -10 46 231Q42 320 108 376T272 440Q195 448 152 492T108 605Q108 797 426 797Q590 797 668 744T746 603Q746 468 585 441Q686 431 745 379T805 232Q805 107 715 49T426 -10ZM668 590Q668
658 611 691T426 724Q183 724 183 592Q183 537 235 506T426 474Q521 474 577 491T650 531T668 590ZM728 234Q728 291 704 326T612 381T426 402Q264 402 194 360T123 232Q123 147 201 105T426 63Q589 63 658 105T728 234Z" />
<glyph unicode="9" glyph-name="nine" horiz-adv-x="849" d="M411 -10Q93 -10 68 186H150Q173 66 414 66Q480 66 530 80T621 127T685 223T707 375Q663 330 578 298T374 266Q221 266 135 330T48 524Q48 654 141 725T408 797Q592 797 692 702T792 392Q792 -10 411
-10ZM706 452Q704 594 623 658T409 723Q268 723 199 670T130 525Q130 337 396 337Q464 337 523 350T618 384T676 422T706 452Z" />
<glyph unicode=":" glyph-name="colon" horiz-adv-x="384" d="M244 433H143V565H244V433ZM244 0H143V133H244V0Z" />
<glyph unicode=";" glyph-name="semicolon" horiz-adv-x="384" d="M244 433H143V565H244V433ZM245 -5L181 -102L138 -75L180 3L164 0H142V136H245V-5Z" />
<glyph unicode="&lt;" glyph-name="less" horiz-adv-x="766" d="M687 52L71 307V375L687 629V557L149 341L687 124V52Z" />
<glyph unicode="=" glyph-name="equal" horiz-adv-x="748" d="M697 453H51V513H697V453ZM697 295H51V356H697V295Z" />
<glyph unicode="&gt;" glyph-name="greater" horiz-adv-x="766" d="M689 307L74 53V123L613 341L74 558V629L689 375V307Z" />
<glyph unicode="?" glyph-name="question" horiz-adv-x="746" d="M371 205H292Q294 262 314 303T364 369T431 410T504 440T571 470T619 512T638 576Q638 650 579 685T374 721Q226 721 167 678T108 553H24Q26 605 42 645T95 722T203 777T376 797Q552 797 638 746T724
581Q724 530 705 493T656 436T589 400T515 371T446 337T394 285T371 205ZM380 0H282V134H380V0Z" />
<glyph unicode="@" glyph-name="at" horiz-adv-x="1120" d="M1065 367Q1058 229 991 152T818 74Q758 74 730 103T704 183Q648 76 491 76Q409 76 354 122T298 268Q298 402 377 486T585 571Q648 571 692 547T747 486L768 550H836Q794 387 773 295Q730 123 839 123Q915
123 964 190T1019 370Q1027 534 921 638T600 743Q373 743 240 621T104 312Q102 224 126 151T191 29T290 -54T408 -103T534 -118Q667 -118 766 -82T926 12L952 -23Q876 -90 780 -123T533 -157Q434 -157 348 -127T196 -41T93 106T58 309Q61 523 209 654T603 785Q721
785 813 752T961 660T1043 528T1065 367ZM727 397Q736 439 700 474T591 510Q498 510 432 445T365 274Q365 203 404 169T510 134Q591 134 637 172T699 270L727 397Z" />
<glyph unicode="A" glyph-name="A" horiz-adv-x="915" d="M208 211L98 0H5L413 785H512L910 0H817L710 211H208ZM671 288L495 639L462 712L428 639L248 288H671Z" />
<glyph unicode="B" glyph-name="B" horiz-adv-x="982" d="M875 76Q816 0 662 0H129V785H618Q735 785 797 726Q847 679 847 589Q847 508 804 455Q775 419 735 412Q817 405 871 351Q917 304 917 216T875 76ZM758 574Q758 636 721 671Q683 709 607 709H212V436H636Q694
436 725 473Q758 511 758 574ZM802 129Q829 160 829 222Q829 285 794 317Q751 360 662 360H212V77H658Q759 77 802 129Z" />
<glyph unicode="C" glyph-name="C" horiz-adv-x="984" d="M935 282Q924 197 873 125Q771 -11 516 -11Q234 -11 130 141Q59 233 59 395Q59 550 118 633Q225 798 505 798Q764 798 877 648Q925 587 934 500H845Q836 570 791 616Q702 715 503 715Q271 715 191 585Q147
523 147 394Q147 262 202 194Q245 130 328 100T507 69Q712 69 796 169Q838 216 845 282H935Z" />
<glyph unicode="D" glyph-name="D" horiz-adv-x="972" d="M867 145Q790 0 555 0H129V785H549Q787 785 864 648Q913 572 913 400Q913 221 867 145ZM792 186Q828 239 828 397Q828 550 790 602Q728 707 543 707H212V79H535Q730 79 792 186Z" />
<glyph unicode="E" glyph-name="E" horiz-adv-x="910" d="M834 0H129V785H827V705H212V437H810V358H212V80H834V0Z" />
<glyph unicode="F" glyph-name="F" horiz-adv-x="857" d="M798 704H213V436H773V355H213V0H129V785H798V704Z" />
<glyph unicode="G" glyph-name="G" horiz-adv-x="994" d="M901 0H827L823 125Q721 -11 482 -11Q240 -11 138 115Q59 205 59 393Q59 569 135 661Q241 797 497 797Q758 797 852 646Q891 589 897 517H812Q805 576 770 617Q691 718 502 718Q289 718 207 617Q146 544
146 392Q146 239 210 166Q293 66 492 66Q709 66 795 200Q820 240 820 344H443V424H901V0Z" />
<glyph unicode="H" glyph-name="H" horiz-adv-x="1006" d="M878 0H794V357H213V0H129V785H213V438H794V785H878V0Z" />
<glyph unicode="I" glyph-name="I" horiz-adv-x="343" d="M215 0H129V785H215V0Z" />
<glyph unicode="J" glyph-name="J" horiz-adv-x="665" d="M548 257Q548 126 465 59T242 -9Q108 -9 16 9V89Q101 72 227 72T408 122T463 277V785H548V257Z" />
<glyph unicode="K" glyph-name="K" horiz-adv-x="895" d="M866 0H751L332 387L213 301V0H129V785H213V389L746 785H860L398 437L866 0Z" />
<glyph unicode="L" glyph-name="L" horiz-adv-x="804" d="M772 0H129V785H214V81H772V0Z" />
<glyph unicode="M" glyph-name="M" horiz-adv-x="1184" d="M1057 0H976V676L637 0H542L210 676V0H129V785H245L591 83L942 785H1057V0Z" />
<glyph unicode="N" glyph-name="N" horiz-adv-x="997" d="M871 0H774L211 675V0H129V785H229L791 110V785H871V0Z" />
<glyph unicode="O" glyph-name="O" horiz-adv-x="1006" d="M278 798T504 798T845 688Q948 591 948 395T843 99Q734 -11 503 -11Q289 -11 177 93Q59 194 59 395Q59 587 163 684Q278 798 504 798ZM504 68Q682 68 775 152Q862 230 862 394Q862 559 779 633Q682 718
503 718Q323 718 230 634Q145 558 145 393Q145 227 248 142Q342 68 504 68Z" />
<glyph unicode="P" glyph-name="P" horiz-adv-x="930" d="M867 528Q867 417 835 367Q775 275 589 273H213V0H129V785H593Q782 785 836 686Q867 633 867 528ZM781 528Q781 601 765 633Q730 707 583 707H213V353H581Q725 353 764 423Q781 453 781 528Z" />
<glyph unicode="Q" glyph-name="Q" horiz-adv-x="1006" d="M601 2Q635 -28 684 -51Q749 -82 802 -85L764 -154Q692 -147 614 -103Q544 -66 495 -10Q492 -10 481 -10T466 -9Q384 -7 308 19T177 94Q59 198 59 395Q59 583 164 684Q278 798 504 798Q731 798 844 688Q948
592 948 395Q948 300 920 223T842 100Q743 13 601 2ZM504 65Q681 65 775 150Q863 229 863 394Q863 554 779 632Q683 718 503 718Q325 718 235 637Q145 559 145 392Q145 224 246 143Q344 65 504 65Z" />
<glyph unicode="R" glyph-name="R" horiz-adv-x="970" d="M850 569Q850 492 826 450Q806 415 770 392T691 365L929 0H827L602 351H213V0H129V785H612Q770 785 823 688Q850 642 850 569ZM764 562Q764 616 749 643Q715 706 600 706H213V428H624Q722 430 749 485Q764
515 764 562Z" />
<glyph unicode="S" glyph-name="S" horiz-adv-x="963" d="M884 219Q884 -11 501 -11Q298 -11 191 53T75 238H165Q175 67 502 67Q659 67 727 104T795 211Q795 281 730 314T482 368Q478 368 470 369Q417 376 390 379T316 392T243 410T184 435T134 471T105 519T92
583Q92 677 182 736T465 796Q653 796 750 732T868 566H776Q738 718 461 718Q180 718 180 588Q180 572 184 558T197 533T218 513T245 497T278 484T316 474T358 466T403 459T451 453T500 448Q577 440 632 430T737 403T818 362T866 302T884 219Z" />
<glyph unicode="T" glyph-name="T" horiz-adv-x="815" d="M811 705H451V0H365V705H5V785H811V705Z" />
<glyph unicode="U" glyph-name="U" horiz-adv-x="990" d="M875 270Q875 135 774 62T498 -11Q320 -11 218 60T115 277V785H199V270Q199 174 275 121T501 67Q629 67 710 120T791 269V785H875V270Z" />
<glyph unicode="V" glyph-name="V" horiz-adv-x="917" d="M916 785L513 0H405L2 785H95L461 79L829 785H916Z" />
<glyph unicode="W" glyph-name="W" horiz-adv-x="1242" d="M1238 785L949 0H838L622 689L403 0H292L1 785H94L349 81L569 785H675L895 81L1151 785H1238Z" />
<glyph unicode="X" glyph-name="X" horiz-adv-x="847" d="M427 342L104 0H1L378 400L28 785H136L430 463L733 785H836L479 405L845 0H737L427 342Z" />
<glyph unicode="Y" glyph-name="Y" horiz-adv-x="933" d="M929 785L503 260V0H417V259L4 785H100L461 331L835 785H929Z" />
<glyph unicode="Z" glyph-name="Z" horiz-adv-x="824" d="M789 0H51V83L656 706H78V785H766V705L156 79H789V0Z" />
<glyph unicode="[" glyph-name="bracketleft" horiz-adv-x="535" d="M464 -180H129V785H464V715H205V-110H464V-180Z" />
<glyph unicode="\" glyph-name="backslash" horiz-adv-x="378" d="M-36 795H17L415 -158H363L-36 795Z" />
<glyph unicode="]" glyph-name="bracketright" horiz-adv-x="541" d="M76 -180V-110H333V716H76V785H410V-180H76Z" />
<glyph unicode="^" glyph-name="asciicircum" horiz-adv-x="726" d="M372 724L100 516L49 573L329 795H415L694 573L643 516L372 724Z" />
<glyph unicode="_" glyph-name="underscore" horiz-adv-x="554" d="M553 -188H0V-115H553V-188Z" />
<glyph unicode="`" glyph-name="grave" horiz-adv-x="503" d="M339 606H259L121 750H211L339 606Z" />
<glyph unicode="a" glyph-name="a" horiz-adv-x="806" d="M725 0H649Q648 0 643 33T639 83Q571 -9 340 -9Q61 -9 61 155Q61 240 141 284T412 330Q504 331 640 319Q640 421 591 458T404 496Q286 496 232 466T172 376H93Q107 473 184 518T406 564T624 522T708 396Q714
347 712 275Q712 263 712 203T711 122Q711 34 725 0ZM639 262Q498 272 426 271Q277 270 210 243T142 160Q142 55 355 55Q424 55 471 63T559 92T619 156T639 262Z" />
<glyph unicode="b" glyph-name="b" horiz-adv-x="864" d="M468 564Q678 564 756 453Q806 387 806 279Q806 172 754 101Q678 -8 469 -8Q247 -8 180 101L178 0H102V795H180V442Q204 495 276 529T468 564ZM448 492Q333 492 271 455T190 357Q178 315 178 267Q178 216
193 181Q216 127 279 94T447 61Q625 61 688 144Q726 195 726 277Q726 360 691 406Q630 492 448 492Z" />
<glyph unicode="c" glyph-name="c" horiz-adv-x="822" d="M763 352H684Q681 390 656 416Q590 491 421 491Q239 491 170 407Q131 362 131 274T173 138Q235 60 422 60Q588 60 649 119Q675 145 685 188H766Q756 119 714 76Q630 -11 419 -11Q192 -11 107 92Q50 158
50 277Q50 388 104 454Q195 564 419 564Q651 564 729 453Q758 414 763 352Z" />
<glyph unicode="d" glyph-name="d" horiz-adv-x="854" d="M394 562Q615 562 677 450V788H755V54L759 0H683L677 106Q648 51 574 20T393 -11Q188 -11 106 92Q51 161 51 274Q51 383 109 457Q190 562 394 562ZM405 489Q241 489 176 410Q131 357 131 275Q131 185 172
137Q236 59 405 59Q596 59 650 153Q678 199 678 273Q678 359 647 402Q587 489 405 489Z" />
<glyph unicode="e" glyph-name="e" horiz-adv-x="806" d="M768 168Q749 91 665 40T419 -11Q51 -11 51 281Q51 418 146 491T414 564Q602 564 692 479T774 247H130Q132 156 208 106T421 56Q546 56 609 91T685 168H768ZM692 311Q692 396 623 445T413 495Q277 495
204 446T131 311H692Z" />
<glyph unicode="f" glyph-name="f" horiz-adv-x="531" d="M512 477H250V0H169V477H23V548H169V629Q169 711 220 757T375 803Q452 803 515 792V719Q449 731 388 731Q313 730 281 703T249 624V548H512V477Z" />
<glyph unicode="g" glyph-name="g" horiz-adv-x="757" d="M369 568Q516 568 602 516Q625 535 678 544T777 554V487Q662 487 641 472Q685 426 685 356Q685 162 377 162Q315 162 257 173T176 196Q139 189 139 160Q139 144 156 136T230 122T400 114Q544 112 621 97T727
53T755 -25Q755 -105 666 -143T383 -181Q195 -181 113 -145T31 -41Q31 4 60 33T133 72Q66 86 66 150Q66 177 85 196T131 224Q62 264 62 364Q62 459 143 513T369 568ZM371 502Q255 502 197 462T139 359Q139 222 370 222Q500 222 553 256T606 362Q606 502 371 502ZM379
-117Q544 -117 611 -95T679 -29Q679 13 625 27T400 45Q255 48 200 54Q160 46 132 25T104 -27Q104 -117 379 -117Z" />
<glyph unicode="h" glyph-name="h" horiz-adv-x="814" d="M725 344Q725 3 729 0H651Q647 4 646 47T645 325Q645 408 596 449T427 490Q321 490 251 444T181 316V0H102V795H179V440Q203 498 277 530T456 563Q590 563 657 506T725 344Z" />
<glyph unicode="i" glyph-name="i" horiz-adv-x="295" d="M191 635H104V759H191V635ZM195 0H115Q107 5 107 46V550H187V47Q187 5 195 0Z" />
<glyph unicode="j" glyph-name="j" horiz-adv-x="304" d="M205 635H117V759H205V635ZM201 19Q201 -185 24 -185Q-29 -185 -57 -177V-108Q-15 -114 3 -114Q66 -114 94 -84T122 13V550H201V19Z" />
<glyph unicode="k" glyph-name="k" horiz-adv-x="750" d="M745 0H648L391 306L181 158V0H102V795H181V241L606 550H714L450 354L745 0Z" />
<glyph unicode="l" glyph-name="l" horiz-adv-x="287" d="M188 0H109Q104 3 104 33V735Q104 782 101 797H180Q183 787 183 741V57Q183 4 188 0Z" />
<glyph unicode="m" glyph-name="m" horiz-adv-x="1225" d="M1060 0Q1056 0 1055 42T1054 323Q1054 399 1012 443T863 487Q771 487 713 449T655 326V0H580V337Q580 408 530 447T390 487Q298 487 240 439T181 325V0H102V550H178V437Q200 497 266 529T415 562Q498
562 558 531T637 436Q686 562 882 562Q1010 562 1067 504T1125 348Q1125 106 1126 55T1131 0H1060Z" />
<glyph unicode="n" glyph-name="n" horiz-adv-x="814" d="M729 0H653Q648 0 647 52T645 324Q645 409 594 449T429 490Q324 490 253 446T181 318V0H102V550H178V437Q206 504 282 533T456 563Q593 563 659 505T725 340Q725 12 729 0Z" />
<glyph unicode="o" glyph-name="o" horiz-adv-x="848" d="M798 277Q798 159 720 84Q625 -11 424 -11Q218 -11 126 83Q50 154 50 277Q50 394 128 466Q224 564 424 564Q621 564 720 473Q798 396 798 277ZM718 277Q718 371 656 426Q581 491 423 491Q269 491 192 420Q130
368 130 277Q130 180 191 125Q263 61 424 61Q583 61 655 127Q718 184 718 277Z" />
<glyph unicode="p" glyph-name="p" horiz-adv-x="854" d="M808 278Q808 149 734 80Q648 -8 470 -8Q367 -8 289 18T181 99V-180H102V549H178L179 439Q204 494 281 528T464 562Q655 562 738 471Q808 402 808 278ZM726 179T726 277T670 426Q600 490 446 490Q297 490
230 421Q179 370 179 271Q179 183 227 133Q292 62 451 62Q601 62 670 128Q726 179 726 277Z" />
<glyph unicode="q" glyph-name="q" horiz-adv-x="851" d="M757 -180H682L677 -173V104Q612 -11 393 -11Q189 -11 110 90Q51 160 51 271Q51 384 113 460Q150 508 221 535T386 563Q616 563 681 447L680 550H753V-114Q753 -160 757 -180ZM678 276Q678 363 645 405Q581
491 406 491Q329 491 267 470T176 411Q131 358 131 273T174 137Q236 59 412 59T649 151Q678 192 678 276Z" />
<glyph unicode="r" glyph-name="r" horiz-adv-x="592" d="M576 547V463Q498 483 423 483Q323 483 252 423T181 260V0H102V550H180V409Q198 473 267 516T428 560Q508 562 576 547Z" />
<glyph unicode="s" glyph-name="s" horiz-adv-x="784" d="M722 156Q722 -11 404 -11Q219 -11 146 28T65 161H143Q145 103 201 80T405 57Q537 57 590 82T643 153Q643 190 612 212T531 241T421 252T300 262T190 282T109 328T78 413Q78 485 152 525T374 565Q531 565
609 525T695 394H616Q613 443 563 469T377 495Q291 495 241 484T174 455T157 411Q157 378 188 359T269 334T379 324T500 314T610 293T691 244T722 156Z" />
<glyph unicode="t" glyph-name="t" horiz-adv-x="487" d="M459 477H214V173Q214 108 242 85T338 61Q408 61 452 71V4Q410 -10 315 -10Q224 -10 179 26T134 151V477H-5V548H133L137 682L213 683V548H459V477Z" />
<glyph unicode="u" glyph-name="u" horiz-adv-x="814" d="M722 0Q719 15 719 112V550H639V218Q639 148 571 105T389 61Q175 61 175 219Q175 550 172 550Q174 549 132 550H90Q95 545 95 185Q95 -11 362 -11Q572 -11 641 97L644 0H722Z" />
<glyph unicode="v" glyph-name="v" horiz-adv-x="762" d="M756 550L431 0H332L7 550H94L383 68L672 550H756Z" />
<glyph unicode="w" glyph-name="w" horiz-adv-x="1190" d="M1181 550L909 0H815L605 460L596 487L587 460L379 0H283L15 550H99L333 68L551 550H644L867 68L1100 550H1181Z" />
<glyph unicode="x" glyph-name="x" horiz-adv-x="734" d="M373 326L627 550H724L422 282L727 0H626L370 235L104 0H7L322 279L28 550H130L373 326Z" />
<glyph unicode="y" glyph-name="y" horiz-adv-x="778" d="M764 550L323 -180H235L348 1L15 550H102L392 75L681 550H764Z" />
<glyph unicode="z" glyph-name="z" horiz-adv-x="681" d="M648 0H45V68L513 476H52V548H626V478L157 71H648V0Z" />
<glyph unicode="{" glyph-name="braceleft" horiz-adv-x="570" d="M508 -163H410Q316 -163 271 -121T225 -12Q225 17 230 90T235 190Q235 318 77 318V388Q235 388 235 511Q235 535 230 571T225 636Q225 700 272 742T409 785H508V713Q438 717 396 714T332 692T304
653T299 601Q299 592 302 553T306 494Q306 437 275 400T185 357Q245 353 275 315T306 217Q306 190 302 116T298 23Q297 -2 300 -19T315 -54T350 -79T412 -92T508 -90V-163Z" />
<glyph unicode="|" glyph-name="bar" horiz-adv-x="378" d="M223 -200H156V800H223V-200Z" />
<glyph unicode="}" glyph-name="braceright" horiz-adv-x="570" d="M62 -163V-90Q117 -97 155 -92T217 -79T253 -54T269 -19T272 23Q272 42 268 116T264 217Q264 277 294 315T385 357Q326 362 295 399T264 494Q264 513 268 552T272 601Q273 631 265 651T235 690T171
713T62 713V785H161Q252 785 299 743T346 636Q346 607 341 571T336 511Q336 448 374 418T494 388V318Q336 318 336 190Q336 163 340 90T345 -12Q345 -78 300 -120T160 -163H62Z" />
<glyph unicode="~" glyph-name="asciitilde" horiz-adv-x="733" d="M347 322Q321 358 302 389T255 442T197 464T144 449T110 414T91 361T83 304T80 247L10 248Q12 546 192 546Q223 546 249 535T299 501T338 457T376 402Q390 382 402 364T428 329T457 300T489 280T528
272Q583 272 616 323T649 467L715 465Q715 343 669 269T532 195Q472 195 431 227T347 322Z" />
</font>
</defs>
</svg>
